<svg width="18" height="18" viewBox="0 0 18 18" fill="none" xmlns="http://www.w3.org/2000/svg">
<path fill-rule="evenodd" clip-rule="evenodd" d="M14.5328 15.2237H12.005V11.2656C12.005 10.3218 11.9877 9.10777 10.6906 9.10777C9.37444 9.10777 9.1724 10.1359 9.1724 11.1974V15.2237H6.64508V7.08468H9.07114V8.19678H9.10501C9.44278 7.55699 10.2679 6.88239 11.4985 6.88239C14.0599 6.88239 14.5328 8.56819 14.5328 10.7595V15.2237ZM3.7944 5.97214C2.98362 5.97214 2.32751 5.31495 2.32751 4.50521C2.32751 3.69619 2.98362 3.03899 3.7944 3.03899C4.60317 3.03899 5.26034 3.69619 5.26034 4.50521C5.26034 5.31495 4.60317 5.97214 3.7944 5.97214ZM2.52859 15.2237H5.05828V7.08466H2.52859V15.2237ZM15.7922 0.690918H1.2588C0.564324 0.690918 0 1.2414 0 1.91979V16.5149C0 17.1942 0.564324 17.7455 1.2588 17.7455H15.7922C16.4879 17.7455 17.0546 17.1942 17.0546 16.5149V1.91979C17.0546 1.2414 16.4879 0.690918 15.7922 0.690918Z" fill="#9251F7"/>
</svg>
