<svg width="56" height="56" viewBox="0 0 56 56" fill="none" xmlns="http://www.w3.org/2000/svg">
<g filter="url(#filter0_d_54_3)">
<rect x="14" y="10" width="28" height="28" rx="6" fill="white"/>
<path d="M32.5001 16.5L23.0834 25.9167L22.5001 26.5L21.6667 27.3334L21.6667 30.6667L25.0001 30.6667L25.8334 29.8334L26.4168 29.25L35.8335 19.8333L32.5001 16.5Z" fill="#ECF0F1"/>
<path d="M34.1667 18.1667L21.6667 30.6668L25 30.6668L25.8334 29.8335L26.4167 29.2501L35.8334 19.8334L34.1667 18.1667Z" fill="#BDC3C7"/>
<path d="M35.0001 20.6666L31.6667 17.3333L22.5 26.5L25.8334 29.8333L35.0001 20.6666Z" fill="#E67E22"/>
<path d="M36.6667 15.6667C35.7458 14.7458 34.25 14.75 33.3333 15.6667L32.5 16.5L35.8333 19.8334L36.6667 19C37.5833 18.0834 37.5875 16.5875 36.6667 15.6667Z" fill="#7F8C8D"/>
<path d="M21.6616 28.3284L21.6666 30.6667L24.005 30.6717L22.8333 29.5L21.6616 28.3284Z" fill="#34495E"/>
<path d="M22.8333 29.5L21.6666 30.6667L24.0049 30.6717L22.8333 29.5Z" fill="#2C3E50"/>
<path d="M36.6667 15.6667C35.7458 14.7458 34.25 14.75 33.3333 15.6667L32.5 16.5L34.1667 18.1667L36.6667 15.6667Z" fill="#95A5A6"/>
<path d="M35 20.6667L33.3334 19L24.1667 28.1667L25.8333 29.8334L35 20.6667Z" fill="#D35400"/>
</g>
<defs>
<filter id="filter0_d_54_3" x="0.234866" y="0.234866" width="55.5303" height="55.5303" filterUnits="userSpaceOnUse" color-interpolation-filters="sRGB">
<feFlood flood-opacity="0" result="BackgroundImageFix"/>
<feColorMatrix in="SourceAlpha" type="matrix" values="0 0 0 0 0 0 0 0 0 0 0 0 0 0 0 0 0 0 127 0" result="hardAlpha"/>
<feOffset dy="4"/>
<feGaussianBlur stdDeviation="6.88257"/>
<feColorMatrix type="matrix" values="0 0 0 0 0 0 0 0 0 0.230208 0 0 0 0 0.425 0 0 0 0.06 0"/>
<feBlend mode="multiply" in2="BackgroundImageFix" result="effect1_dropShadow_54_3"/>
<feBlend mode="normal" in="SourceGraphic" in2="effect1_dropShadow_54_3" result="shape"/>
</filter>
</defs>
</svg>
