<svg width="16" height="16" viewBox="0 0 16 16" fill="none" xmlns="http://www.w3.org/2000/svg">
<path fill-rule="evenodd" clip-rule="evenodd" d="M12.7978 13.5066H10.5718V10.0212C10.5718 9.19006 10.5566 8.12096 9.41431 8.12096C8.25534 8.12096 8.07742 9.02632 8.07742 9.9611V13.5066H5.85187V6.33942H7.98825V7.31874H8.01808C8.31551 6.75534 9.0421 6.16129 10.1258 6.16129C12.3814 6.16129 12.7978 7.6458 12.7978 9.57543V13.5066ZM3.34157 5.35955C2.6276 5.35955 2.04984 4.78083 2.04984 4.06778C2.04984 3.35535 2.6276 2.77663 3.34157 2.77663C4.05377 2.77663 4.63247 3.35535 4.63247 4.06778C4.63247 4.78083 4.05377 5.35955 3.34157 5.35955ZM2.2269 13.5066H4.45453V6.33941H2.2269V13.5066ZM13.9066 0.708984H1.1085C0.496942 0.708984 0 1.19374 0 1.79113V14.6436C0 15.2417 0.496942 15.7272 1.1085 15.7272H13.9066C14.5192 15.7272 15.0182 15.2417 15.0182 14.6436V1.79113C15.0182 1.19374 14.5192 0.708984 13.9066 0.708984Z" fill="#516CF7"/>
</svg>
