<svg width="16" height="16" fill="none" xmlns="http://www.w3.org/2000/svg"><path fill-rule="evenodd" clip-rule="evenodd" d="M12.798 13.507h-2.226V10.02c0-.83-.015-1.9-1.158-1.9-1.159 0-1.337.905-1.337 1.84v3.546H5.852V6.339h2.136v.98h.03c.298-.564 1.024-1.158 2.108-1.158 2.255 0 2.672 1.485 2.672 3.414v3.932ZM3.342 5.36a1.292 1.292 0 1 1 0-2.584 1.292 1.292 0 0 1 0 2.584Zm-1.115 8.147h2.228V6.339H2.227v7.168ZM13.907.709H1.108C.497.709 0 1.194 0 1.791v12.853c0 .598.497 1.083 1.109 1.083h12.798c.612 0 1.111-.485 1.111-1.083V1.79c0-.597-.499-1.082-1.111-1.082Z" fill="#516CF7"/></svg>